<mxfile host="65bd71144e">
    <diagram name="Page-1" id="tK9XWUJbQ8nHQRWHw9MY">
        <mxGraphModel dx="2930" dy="2324" grid="1" gridSize="10" guides="1" tooltips="1" connect="1" arrows="1" fold="1" page="1" pageScale="1" pageWidth="827" pageHeight="1169" math="0" shadow="0">
            <root>
                <mxCell id="0"/>
                <mxCell id="1" parent="0"/>
                <mxCell id="IO4uM3I-0ZBh1bMWOgTJ-8" value="" style="rounded=0;whiteSpace=wrap;html=1;fillColor=#f5f5f5;fontColor=#333333;strokeColor=#666666;dashed=1;" parent="1" vertex="1">
                    <mxGeometry x="240" y="200" width="690" height="470" as="geometry"/>
                </mxCell>
                <mxCell id="IO4uM3I-0ZBh1bMWOgTJ-6" value="" style="rounded=0;whiteSpace=wrap;html=1;fillColor=#f5f5f5;fontColor=#333333;strokeColor=#666666;dashed=1;" parent="1" vertex="1">
                    <mxGeometry x="40" y="200" width="160" height="470" as="geometry"/>
                </mxCell>
                <mxCell id="IO4uM3I-0ZBh1bMWOgTJ-15" style="edgeStyle=orthogonalEdgeStyle;rounded=0;orthogonalLoop=1;jettySize=auto;html=1;exitX=1;exitY=0.5;exitDx=0;exitDy=0;" parent="1" source="IO4uM3I-0ZBh1bMWOgTJ-1" target="IO4uM3I-0ZBh1bMWOgTJ-14" edge="1">
                    <mxGeometry relative="1" as="geometry"/>
                </mxCell>
                <mxCell id="IO4uM3I-0ZBh1bMWOgTJ-1" value="Harmonize structure" style="rounded=0;whiteSpace=wrap;html=1;" parent="1" vertex="1">
                    <mxGeometry x="280" y="370" width="120" height="60" as="geometry"/>
                </mxCell>
                <mxCell id="IO4uM3I-0ZBh1bMWOgTJ-10" style="edgeStyle=orthogonalEdgeStyle;rounded=0;orthogonalLoop=1;jettySize=auto;html=1;exitX=1;exitY=0.5;exitDx=0;exitDy=0;" parent="1" source="IO4uM3I-0ZBh1bMWOgTJ-2" target="IO4uM3I-0ZBh1bMWOgTJ-1" edge="1">
                    <mxGeometry relative="1" as="geometry"/>
                </mxCell>
                <mxCell id="IO4uM3I-0ZBh1bMWOgTJ-2" value="KG1" style="ellipse;whiteSpace=wrap;html=1;aspect=fixed;fillColor=#d5e8d4;strokeColor=#82b366;" parent="1" vertex="1">
                    <mxGeometry x="80" y="240" width="80" height="80" as="geometry"/>
                </mxCell>
                <mxCell id="IO4uM3I-0ZBh1bMWOgTJ-11" style="edgeStyle=orthogonalEdgeStyle;rounded=0;orthogonalLoop=1;jettySize=auto;html=1;exitX=1;exitY=0.5;exitDx=0;exitDy=0;" parent="1" source="IO4uM3I-0ZBh1bMWOgTJ-3" target="IO4uM3I-0ZBh1bMWOgTJ-1" edge="1">
                    <mxGeometry relative="1" as="geometry"/>
                </mxCell>
                <mxCell id="IO4uM3I-0ZBh1bMWOgTJ-3" value="KG2" style="ellipse;whiteSpace=wrap;html=1;aspect=fixed;fillColor=#ffe6cc;strokeColor=#d79b00;" parent="1" vertex="1">
                    <mxGeometry x="80" y="360" width="80" height="80" as="geometry"/>
                </mxCell>
                <mxCell id="IO4uM3I-0ZBh1bMWOgTJ-12" style="edgeStyle=orthogonalEdgeStyle;rounded=0;orthogonalLoop=1;jettySize=auto;html=1;exitX=1;exitY=0.5;exitDx=0;exitDy=0;" parent="1" source="IO4uM3I-0ZBh1bMWOgTJ-4" target="IO4uM3I-0ZBh1bMWOgTJ-1" edge="1">
                    <mxGeometry relative="1" as="geometry"/>
                </mxCell>
                <mxCell id="IO4uM3I-0ZBh1bMWOgTJ-4" value="CGK" style="ellipse;whiteSpace=wrap;html=1;aspect=fixed;" parent="1" vertex="1">
                    <mxGeometry x="80" y="520" width="80" height="80" as="geometry"/>
                </mxCell>
                <mxCell id="IO4uM3I-0ZBh1bMWOgTJ-58" style="edgeStyle=orthogonalEdgeStyle;rounded=0;orthogonalLoop=1;jettySize=auto;html=1;exitX=1;exitY=0.5;exitDx=0;exitDy=0;entryX=0;entryY=0.5;entryDx=0;entryDy=0;" parent="1" source="IO4uM3I-0ZBh1bMWOgTJ-14" target="IO4uM3I-0ZBh1bMWOgTJ-56" edge="1">
                    <mxGeometry relative="1" as="geometry"/>
                </mxCell>
                <mxCell id="IO4uM3I-0ZBh1bMWOgTJ-14" value="Entity resolution" style="rounded=0;whiteSpace=wrap;html=1;fillColor=#d5e8d4;strokeColor=#82b366;" parent="1" vertex="1">
                    <mxGeometry x="450" y="370" width="120" height="60" as="geometry"/>
                </mxCell>
                <mxCell id="IO4uM3I-0ZBh1bMWOgTJ-16" value="castleman: clm" style="rounded=1;whiteSpace=wrap;html=1;" parent="1" vertex="1">
                    <mxGeometry x="-10" y="250" width="120" height="20" as="geometry"/>
                </mxCell>
                <mxCell id="IO4uM3I-0ZBh1bMWOgTJ-17" value="castleman: clmd" style="rounded=1;whiteSpace=wrap;html=1;" parent="1" vertex="1">
                    <mxGeometry x="-10" y="380" width="120" height="20" as="geometry"/>
                </mxCell>
                <mxCell id="IO4uM3I-0ZBh1bMWOgTJ-21" style="edgeStyle=orthogonalEdgeStyle;rounded=0;orthogonalLoop=1;jettySize=auto;html=1;exitX=1;exitY=0.5;exitDx=0;exitDy=0;" parent="1" source="IO4uM3I-0ZBh1bMWOgTJ-18" target="IO4uM3I-0ZBh1bMWOgTJ-20" edge="1">
                    <mxGeometry relative="1" as="geometry"/>
                </mxCell>
                <mxCell id="IO4uM3I-0ZBh1bMWOgTJ-18" value="Write" style="rounded=1;whiteSpace=wrap;html=1;arcSize=2;" parent="1" vertex="1">
                    <mxGeometry x="760" y="370" width="120" height="60" as="geometry"/>
                </mxCell>
                <mxCell id="IO4uM3I-0ZBh1bMWOgTJ-35" style="edgeStyle=orthogonalEdgeStyle;rounded=0;orthogonalLoop=1;jettySize=auto;html=1;exitX=0.145;exitY=1;exitDx=0;exitDy=-4.35;exitPerimeter=0;entryX=0;entryY=0.5;entryDx=0;entryDy=0;" parent="1" source="IO4uM3I-0ZBh1bMWOgTJ-20" target="IO4uM3I-0ZBh1bMWOgTJ-34" edge="1">
                    <mxGeometry relative="1" as="geometry">
                        <Array as="points">
                            <mxPoint x="1010" y="436"/>
                            <mxPoint x="1010" y="710"/>
                            <mxPoint x="740" y="710"/>
                            <mxPoint x="740" y="820"/>
                        </Array>
                    </mxGeometry>
                </mxCell>
                <mxCell id="IO4uM3I-0ZBh1bMWOgTJ-20" value="Neo4j" style="shape=cylinder3;whiteSpace=wrap;html=1;boundedLbl=1;backgroundOutline=1;size=15;" parent="1" vertex="1">
                    <mxGeometry x="990" y="360" width="60" height="80" as="geometry"/>
                </mxCell>
                <mxCell id="IO4uM3I-0ZBh1bMWOgTJ-22" value="Integration Pipeline" style="text;html=1;align=center;verticalAlign=middle;whiteSpace=wrap;rounded=0;" parent="1" vertex="1">
                    <mxGeometry x="640" y="640" width="120" height="30" as="geometry"/>
                </mxCell>
                <mxCell id="IO4uM3I-0ZBh1bMWOgTJ-23" value="" style="rounded=0;whiteSpace=wrap;html=1;fillColor=#f5f5f5;fontColor=#333333;strokeColor=#666666;dashed=1;" parent="1" vertex="1">
                    <mxGeometry x="1120" y="210" width="520" height="470" as="geometry"/>
                </mxCell>
                <mxCell id="IO4uM3I-0ZBh1bMWOgTJ-24" value="Modeling" style="text;html=1;align=center;verticalAlign=middle;whiteSpace=wrap;rounded=0;" parent="1" vertex="1">
                    <mxGeometry x="1121" y="650" width="79" height="30" as="geometry"/>
                </mxCell>
                <mxCell id="IO4uM3I-0ZBh1bMWOgTJ-31" style="edgeStyle=orthogonalEdgeStyle;rounded=0;orthogonalLoop=1;jettySize=auto;html=1;exitX=1;exitY=0.5;exitDx=0;exitDy=0;" parent="1" source="IO4uM3I-0ZBh1bMWOgTJ-25" target="IO4uM3I-0ZBh1bMWOgTJ-28" edge="1">
                    <mxGeometry relative="1" as="geometry"/>
                </mxCell>
                <mxCell id="IO4uM3I-0ZBh1bMWOgTJ-25" value="Query Neo4j" style="rounded=0;whiteSpace=wrap;html=1;" parent="1" vertex="1">
                    <mxGeometry x="1160" y="370" width="120" height="60" as="geometry"/>
                </mxCell>
                <mxCell id="IO4uM3I-0ZBh1bMWOgTJ-60" style="edgeStyle=orthogonalEdgeStyle;rounded=0;orthogonalLoop=1;jettySize=auto;html=1;exitX=1;exitY=0.5;exitDx=0;exitDy=0;" parent="1" source="IO4uM3I-0ZBh1bMWOgTJ-26" target="IO4uM3I-0ZBh1bMWOgTJ-59" edge="1">
                    <mxGeometry relative="1" as="geometry"/>
                </mxCell>
                <mxCell id="IO4uM3I-0ZBh1bMWOgTJ-26" value="Hyperparam tuning" style="rounded=0;whiteSpace=wrap;html=1;" parent="1" vertex="1">
                    <mxGeometry x="1490" y="370" width="120" height="60" as="geometry"/>
                </mxCell>
                <mxCell id="IO4uM3I-0ZBh1bMWOgTJ-32" style="edgeStyle=orthogonalEdgeStyle;rounded=0;orthogonalLoop=1;jettySize=auto;html=1;exitX=1;exitY=0.5;exitDx=0;exitDy=0;" parent="1" source="IO4uM3I-0ZBh1bMWOgTJ-28" target="IO4uM3I-0ZBh1bMWOgTJ-26" edge="1">
                    <mxGeometry relative="1" as="geometry"/>
                </mxCell>
                <mxCell id="IO4uM3I-0ZBh1bMWOgTJ-28" value="Split" style="rounded=0;whiteSpace=wrap;html=1;" parent="1" vertex="1">
                    <mxGeometry x="1330" y="370" width="120" height="60" as="geometry"/>
                </mxCell>
                <mxCell id="IO4uM3I-0ZBh1bMWOgTJ-27" style="edgeStyle=orthogonalEdgeStyle;rounded=0;orthogonalLoop=1;jettySize=auto;html=1;exitX=1;exitY=0.5;exitDx=0;exitDy=0;exitPerimeter=0;" parent="1" source="IO4uM3I-0ZBh1bMWOgTJ-20" target="IO4uM3I-0ZBh1bMWOgTJ-25" edge="1">
                    <mxGeometry relative="1" as="geometry"/>
                </mxCell>
                <mxCell id="IO4uM3I-0ZBh1bMWOgTJ-34" value="" style="rounded=0;whiteSpace=wrap;html=1;fillColor=#f5f5f5;fontColor=#333333;strokeColor=#666666;dashed=1;" parent="1" vertex="1">
                    <mxGeometry x="760" y="760" width="520" height="120" as="geometry"/>
                </mxCell>
                <mxCell id="IO4uM3I-0ZBh1bMWOgTJ-37" value="Embeddings" style="text;html=1;align=center;verticalAlign=middle;whiteSpace=wrap;rounded=0;" parent="1" vertex="1">
                    <mxGeometry x="760" y="850" width="90" height="30" as="geometry"/>
                </mxCell>
                <mxCell id="IO4uM3I-0ZBh1bMWOgTJ-39" style="edgeStyle=orthogonalEdgeStyle;rounded=0;orthogonalLoop=1;jettySize=auto;html=1;exitX=1;exitY=0.5;exitDx=0;exitDy=0;entryX=0.5;entryY=1;entryDx=0;entryDy=0;entryPerimeter=0;" parent="1" source="IO4uM3I-0ZBh1bMWOgTJ-34" target="IO4uM3I-0ZBh1bMWOgTJ-20" edge="1">
                    <mxGeometry relative="1" as="geometry">
                        <Array as="points">
                            <mxPoint x="1300" y="820"/>
                            <mxPoint x="1300" y="710"/>
                            <mxPoint x="1020" y="710"/>
                        </Array>
                    </mxGeometry>
                </mxCell>
                <mxCell id="IO4uM3I-0ZBh1bMWOgTJ-80" style="edgeStyle=orthogonalEdgeStyle;rounded=0;orthogonalLoop=1;jettySize=auto;html=1;exitX=1;exitY=0.5;exitDx=0;exitDy=0;exitPerimeter=0;entryX=0;entryY=0.25;entryDx=0;entryDy=0;" parent="1" source="IO4uM3I-0ZBh1bMWOgTJ-49" target="IO4uM3I-0ZBh1bMWOgTJ-25" edge="1">
                    <mxGeometry relative="1" as="geometry"/>
                </mxCell>
                <mxCell id="IO4uM3I-0ZBh1bMWOgTJ-49" value="BigQuery" style="shape=cylinder3;whiteSpace=wrap;html=1;boundedLbl=1;backgroundOutline=1;size=15;" parent="1" vertex="1">
                    <mxGeometry x="990" y="230" width="60" height="80" as="geometry"/>
                </mxCell>
                <mxCell id="IO4uM3I-0ZBh1bMWOgTJ-50" style="edgeStyle=orthogonalEdgeStyle;rounded=0;orthogonalLoop=1;jettySize=auto;html=1;exitX=1;exitY=0.25;exitDx=0;exitDy=0;entryX=0;entryY=0.5;entryDx=0;entryDy=0;entryPerimeter=0;" parent="1" source="IO4uM3I-0ZBh1bMWOgTJ-18" target="IO4uM3I-0ZBh1bMWOgTJ-49" edge="1">
                    <mxGeometry relative="1" as="geometry">
                        <Array as="points">
                            <mxPoint x="960" y="385"/>
                            <mxPoint x="960" y="270"/>
                        </Array>
                    </mxGeometry>
                </mxCell>
                <mxCell id="IO4uM3I-0ZBh1bMWOgTJ-51" value="Vector" style="shape=cylinder3;whiteSpace=wrap;html=1;boundedLbl=1;backgroundOutline=1;size=15;" parent="1" vertex="1">
                    <mxGeometry x="1190" y="780" width="60" height="80" as="geometry"/>
                </mxCell>
                <mxCell id="IO4uM3I-0ZBh1bMWOgTJ-57" style="edgeStyle=orthogonalEdgeStyle;rounded=0;orthogonalLoop=1;jettySize=auto;html=1;exitX=1;exitY=0.5;exitDx=0;exitDy=0;" parent="1" source="IO4uM3I-0ZBh1bMWOgTJ-56" target="IO4uM3I-0ZBh1bMWOgTJ-18" edge="1">
                    <mxGeometry relative="1" as="geometry"/>
                </mxCell>
                <mxCell id="IO4uM3I-0ZBh1bMWOgTJ-56" value="Enrich graph" style="rounded=0;whiteSpace=wrap;html=1;" parent="1" vertex="1">
                    <mxGeometry x="610" y="370" width="120" height="60" as="geometry"/>
                </mxCell>
                <mxCell id="IO4uM3I-0ZBh1bMWOgTJ-59" value="Model&amp;nbsp;&lt;div&gt;garden&lt;/div&gt;" style="shape=cylinder3;whiteSpace=wrap;html=1;boundedLbl=1;backgroundOutline=1;size=15;" parent="1" vertex="1">
                    <mxGeometry x="1680" y="450" width="60" height="80" as="geometry"/>
                </mxCell>
                <mxCell id="IO4uM3I-0ZBh1bMWOgTJ-61" style="edgeStyle=orthogonalEdgeStyle;rounded=0;orthogonalLoop=1;jettySize=auto;html=1;exitX=1;exitY=0.5;exitDx=0;exitDy=0;" parent="1" source="IO4uM3I-0ZBh1bMWOgTJ-62" target="IO4uM3I-0ZBh1bMWOgTJ-65" edge="1">
                    <mxGeometry relative="1" as="geometry"/>
                </mxCell>
                <mxCell id="IO4uM3I-0ZBh1bMWOgTJ-62" value="Query Neo4j" style="rounded=0;whiteSpace=wrap;html=1;" parent="1" vertex="1">
                    <mxGeometry x="1160" y="460" width="120" height="60" as="geometry"/>
                </mxCell>
                <mxCell id="IO4uM3I-0ZBh1bMWOgTJ-76" style="edgeStyle=orthogonalEdgeStyle;rounded=0;orthogonalLoop=1;jettySize=auto;html=1;exitX=1;exitY=0.5;exitDx=0;exitDy=0;" parent="1" source="IO4uM3I-0ZBh1bMWOgTJ-63" target="IO4uM3I-0ZBh1bMWOgTJ-59" edge="1">
                    <mxGeometry relative="1" as="geometry"/>
                </mxCell>
                <mxCell id="IO4uM3I-0ZBh1bMWOgTJ-63" value="Hyperparam tuning" style="rounded=0;whiteSpace=wrap;html=1;" parent="1" vertex="1">
                    <mxGeometry x="1490" y="460" width="120" height="60" as="geometry"/>
                </mxCell>
                <mxCell id="IO4uM3I-0ZBh1bMWOgTJ-64" style="edgeStyle=orthogonalEdgeStyle;rounded=0;orthogonalLoop=1;jettySize=auto;html=1;exitX=1;exitY=0.5;exitDx=0;exitDy=0;" parent="1" source="IO4uM3I-0ZBh1bMWOgTJ-65" target="IO4uM3I-0ZBh1bMWOgTJ-63" edge="1">
                    <mxGeometry relative="1" as="geometry"/>
                </mxCell>
                <mxCell id="IO4uM3I-0ZBh1bMWOgTJ-65" value="Split" style="rounded=0;whiteSpace=wrap;html=1;" parent="1" vertex="1">
                    <mxGeometry x="1330" y="460" width="120" height="60" as="geometry"/>
                </mxCell>
                <mxCell id="IO4uM3I-0ZBh1bMWOgTJ-71" style="edgeStyle=orthogonalEdgeStyle;rounded=0;orthogonalLoop=1;jettySize=auto;html=1;exitX=1;exitY=0.5;exitDx=0;exitDy=0;" parent="1" source="IO4uM3I-0ZBh1bMWOgTJ-72" target="IO4uM3I-0ZBh1bMWOgTJ-75" edge="1">
                    <mxGeometry relative="1" as="geometry"/>
                </mxCell>
                <mxCell id="IO4uM3I-0ZBh1bMWOgTJ-72" value="Query Neo4j" style="rounded=0;whiteSpace=wrap;html=1;" parent="1" vertex="1">
                    <mxGeometry x="1160" y="550" width="120" height="60" as="geometry"/>
                </mxCell>
                <mxCell id="IO4uM3I-0ZBh1bMWOgTJ-73" value="Hyperparam tuning" style="rounded=0;whiteSpace=wrap;html=1;" parent="1" vertex="1">
                    <mxGeometry x="1490" y="550" width="120" height="60" as="geometry"/>
                </mxCell>
                <mxCell id="IO4uM3I-0ZBh1bMWOgTJ-74" style="edgeStyle=orthogonalEdgeStyle;rounded=0;orthogonalLoop=1;jettySize=auto;html=1;exitX=1;exitY=0.5;exitDx=0;exitDy=0;" parent="1" source="IO4uM3I-0ZBh1bMWOgTJ-75" target="IO4uM3I-0ZBh1bMWOgTJ-73" edge="1">
                    <mxGeometry relative="1" as="geometry"/>
                </mxCell>
                <mxCell id="IO4uM3I-0ZBh1bMWOgTJ-75" value="Split" style="rounded=0;whiteSpace=wrap;html=1;" parent="1" vertex="1">
                    <mxGeometry x="1330" y="550" width="120" height="60" as="geometry"/>
                </mxCell>
                <mxCell id="IO4uM3I-0ZBh1bMWOgTJ-77" style="edgeStyle=orthogonalEdgeStyle;rounded=0;orthogonalLoop=1;jettySize=auto;html=1;exitX=1;exitY=0.5;exitDx=0;exitDy=0;entryX=0.5;entryY=1;entryDx=0;entryDy=0;entryPerimeter=0;" parent="1" source="IO4uM3I-0ZBh1bMWOgTJ-73" target="IO4uM3I-0ZBh1bMWOgTJ-59" edge="1">
                    <mxGeometry relative="1" as="geometry"/>
                </mxCell>
                <mxCell id="IO4uM3I-0ZBh1bMWOgTJ-78" value="Exp tracking" style="rounded=0;whiteSpace=wrap;html=1;" parent="1" vertex="1">
                    <mxGeometry x="1490" y="250" width="120" height="60" as="geometry"/>
                </mxCell>
                <mxCell id="IO4uM3I-0ZBh1bMWOgTJ-83" value="Argo/Airflow (Platform)" style="rounded=0;whiteSpace=wrap;html=1;" parent="1" vertex="1">
                    <mxGeometry x="40" y="1060" width="1720" height="60" as="geometry"/>
                </mxCell>
                <mxCell id="2" value="Comments" parent="0"/>
                <mxCell id="IO4uM3I-0ZBh1bMWOgTJ-54" value="What does this mean for release tags?" style="shape=note;whiteSpace=wrap;html=1;backgroundOutline=1;darkOpacity=0.05;fillColor=#fff2cc;strokeColor=#d6b656;" parent="2" vertex="1">
                    <mxGeometry x="1210" y="-50" width="80" height="100" as="geometry"/>
                </mxCell>
                <mxCell id="IO4uM3I-0ZBh1bMWOgTJ-81" value="Drive everything through release" style="shape=note;whiteSpace=wrap;html=1;backgroundOutline=1;darkOpacity=0.05;fillColor=#f8cecc;strokeColor=#b85450;" parent="2" vertex="1">
                    <mxGeometry x="40" y="-120" width="80" height="100" as="geometry"/>
                </mxCell>
                <mxCell id="IO4uM3I-0ZBh1bMWOgTJ-47" value="Driven by &quot;release&quot; process" style="shape=note;whiteSpace=wrap;html=1;backgroundOutline=1;darkOpacity=0.05;fillColor=#fff2cc;strokeColor=#d6b656;" parent="2" vertex="1">
                    <mxGeometry x="160" y="20" width="80" height="100" as="geometry"/>
                </mxCell>
                <mxCell id="IO4uM3I-0ZBh1bMWOgTJ-44" value="raw KG data housed in object storage folders e.g.,&lt;div&gt;&lt;br&gt;&lt;/div&gt;&lt;div&gt;raw/source/t1&lt;/div&gt;&lt;div&gt;raw/source/t2&lt;/div&gt;" style="shape=note;whiteSpace=wrap;html=1;backgroundOutline=1;darkOpacity=0.05;fillColor=#ffe6cc;strokeColor=#d79b00;" parent="2" vertex="1">
                    <mxGeometry x="150" y="615" width="80" height="100" as="geometry"/>
                </mxCell>
                <mxCell id="IO4uM3I-0ZBh1bMWOgTJ-13" value="1 master vs. individual pipelines vs. projects" style="shape=note;whiteSpace=wrap;html=1;backgroundOutline=1;darkOpacity=0.05;fillColor=#fff2cc;strokeColor=#d6b656;" parent="2" vertex="1">
                    <mxGeometry x="374" y="120" width="80" height="100" as="geometry"/>
                </mxCell>
                <mxCell id="IO4uM3I-0ZBh1bMWOgTJ-82" value="cache of joblib" style="shape=note;whiteSpace=wrap;html=1;backgroundOutline=1;darkOpacity=0.05;fillColor=#fff2cc;strokeColor=#d6b656;" parent="2" vertex="1">
                    <mxGeometry x="510" y="280" width="80" height="100" as="geometry"/>
                </mxCell>
                <mxCell id="IO4uM3I-0ZBh1bMWOgTJ-45" value="If source change, we need to rerun full process" style="shape=note;whiteSpace=wrap;html=1;backgroundOutline=1;darkOpacity=0.05;fillColor=#fff2cc;strokeColor=#d6b656;" parent="2" vertex="1">
                    <mxGeometry x="410" y="420" width="80" height="100" as="geometry"/>
                </mxCell>
                <mxCell id="IO4uM3I-0ZBh1bMWOgTJ-55" value="&lt;div&gt;Only stable features&lt;/div&gt;" style="shape=note;whiteSpace=wrap;html=1;backgroundOutline=1;darkOpacity=0.05;fillColor=#fff2cc;strokeColor=#d6b656;" parent="2" vertex="1">
                    <mxGeometry x="600" y="410" width="80" height="100" as="geometry"/>
                </mxCell>
                <mxCell id="IO4uM3I-0ZBh1bMWOgTJ-46" value="&quot;Release triggers new Neo4J instance&quot;" style="shape=note;whiteSpace=wrap;html=1;backgroundOutline=1;darkOpacity=0.05;fillColor=#f8cecc;strokeColor=#b85450;" parent="2" vertex="1">
                    <mxGeometry x="810" y="420" width="80" height="100" as="geometry"/>
                </mxCell>
                <mxCell id="IO4uM3I-0ZBh1bMWOgTJ-33" value="&lt;div&gt;Node and edge embeddings&lt;/div&gt;" style="shape=note;whiteSpace=wrap;html=1;backgroundOutline=1;darkOpacity=0.05;fillColor=#fff2cc;strokeColor=#d6b656;" parent="2" vertex="1">
                    <mxGeometry x="690" y="860" width="80" height="100" as="geometry"/>
                </mxCell>
                <mxCell id="IO4uM3I-0ZBh1bMWOgTJ-38" value="&lt;div&gt;Do we store embeddings in Neo4J or do we used vector DB?&lt;/div&gt;" style="shape=note;whiteSpace=wrap;html=1;backgroundOutline=1;darkOpacity=0.05;fillColor=#fff2cc;strokeColor=#d6b656;" parent="2" vertex="1">
                    <mxGeometry x="960" y="770" width="80" height="100" as="geometry"/>
                </mxCell>
                <mxCell id="IO4uM3I-0ZBh1bMWOgTJ-40" value="Models will be recomputed when query changes" style="shape=note;whiteSpace=wrap;html=1;backgroundOutline=1;darkOpacity=0.05;fillColor=#fff2cc;strokeColor=#d6b656;" parent="2" vertex="1">
                    <mxGeometry x="1190" y="290" width="80" height="100" as="geometry"/>
                </mxCell>
                <mxCell id="IO4uM3I-0ZBh1bMWOgTJ-43" value="Degrees of freedom:&lt;div&gt;&lt;br&gt;&lt;/div&gt;&lt;div&gt;- Data&lt;/div&gt;&lt;div&gt;- Query&lt;/div&gt;&lt;div&gt;- Params&lt;/div&gt;" style="shape=note;whiteSpace=wrap;html=1;backgroundOutline=1;darkOpacity=0.05;fillColor=#fff2cc;strokeColor=#d6b656;" parent="2" vertex="1">
                    <mxGeometry x="1270" y="170" width="80" height="100" as="geometry"/>
                </mxCell>
                <mxCell id="IO4uM3I-0ZBh1bMWOgTJ-53" value="Need to run integration and modelling independently" style="shape=note;whiteSpace=wrap;html=1;backgroundOutline=1;darkOpacity=0.05;fillColor=#fff2cc;strokeColor=#d6b656;" parent="2" vertex="1">
                    <mxGeometry x="1120" y="-50" width="80" height="100" as="geometry"/>
                </mxCell>
                <mxCell id="IO4uM3I-0ZBh1bMWOgTJ-48" value="Can we spin up Neo4j + bucket with GitOps?" style="shape=note;whiteSpace=wrap;html=1;backgroundOutline=1;darkOpacity=0.05;fillColor=#e1d5e7;strokeColor=#9673a6;" parent="2" vertex="1">
                    <mxGeometry x="880" y="130" width="80" height="100" as="geometry"/>
                </mxCell>
                <mxCell id="IO4uM3I-0ZBh1bMWOgTJ-79" value="Hyper param is only at DS stage, after freeze, split DE and DS" style="shape=note;whiteSpace=wrap;html=1;backgroundOutline=1;darkOpacity=0.05;fillColor=#fff2cc;strokeColor=#d6b656;" parent="2" vertex="1">
                    <mxGeometry x="1570" y="320" width="80" height="100" as="geometry"/>
                </mxCell>
                <mxCell id="IO4uM3I-0ZBh1bMWOgTJ-42" value="Version runs according to Neo4j query&lt;div&gt;&lt;br&gt;&lt;/div&gt;&lt;div&gt;Kedro version&lt;/div&gt;&lt;div&gt;dataset&lt;/div&gt;" style="shape=note;whiteSpace=wrap;html=1;backgroundOutline=1;darkOpacity=0.05;fillColor=#fff2cc;strokeColor=#d6b656;" parent="2" vertex="1">
                    <mxGeometry x="1500" y="640" width="80" height="100" as="geometry"/>
                </mxCell>
                <mxCell id="IO4uM3I-0ZBh1bMWOgTJ-41" value="&quot;release&quot; pipes to trigger pipeline runs due to being expensive" style="shape=note;whiteSpace=wrap;html=1;backgroundOutline=1;darkOpacity=0.05;fillColor=#fff2cc;strokeColor=#d6b656;" parent="2" vertex="1">
                    <mxGeometry x="1591" y="655" width="80" height="100" as="geometry"/>
                </mxCell>
            </root>
        </mxGraphModel>
    </diagram>
</mxfile>